solid cornix_lp_short_edge_snug_storage_stand
  facet normal 0.000000 0.000000 -1.000000
    outer loop
      vertex 10.000 0.000 0.000
      vertex 74.164 10.000 0.000
      vertex 64.164 0.000 0.000
    endloop
  endfacet
  facet normal 0.000000 0.000000 1.000000
    outer loop
      vertex 10.000 0.000 5.000
      vertex 64.164 0.000 5.000
      vertex 74.164 10.000 5.000
    endloop
  endfacet
  facet normal 0.000000 0.000000 -1.000000
    outer loop
      vertex 10.000 0.000 0.000
      vertex 74.164 118.300 0.000
      vertex 74.164 10.000 0.000
    endloop
  endfacet
  facet normal 0.000000 0.000000 1.000000
    outer loop
      vertex 10.000 0.000 5.000
      vertex 74.164 10.000 5.000
      vertex 74.164 118.300 5.000
    endloop
  endfacet
  facet normal 0.000000 0.000000 -1.000000
    outer loop
      vertex 10.000 0.000 0.000
      vertex 64.164 128.300 0.000
      vertex 74.164 118.300 0.000
    endloop
  endfacet
  facet normal 0.000000 0.000000 1.000000
    outer loop
      vertex 10.000 0.000 5.000
      vertex 74.164 118.300 5.000
      vertex 64.164 128.300 5.000
    endloop
  endfacet
  facet normal 0.000000 0.000000 -1.000000
    outer loop
      vertex 10.000 0.000 0.000
      vertex 10.000 128.300 0.000
      vertex 64.164 128.300 0.000
    endloop
  endfacet
  facet normal 0.000000 0.000000 1.000000
    outer loop
      vertex 10.000 0.000 5.000
      vertex 64.164 128.300 5.000
      vertex 10.000 128.300 5.000
    endloop
  endfacet
  facet normal 0.000000 0.000000 -1.000000
    outer loop
      vertex 10.000 0.000 0.000
      vertex 0.000 118.300 0.000
      vertex 10.000 128.300 0.000
    endloop
  endfacet
  facet normal 0.000000 -0.000000 1.000000
    outer loop
      vertex 10.000 0.000 5.000
      vertex 10.000 128.300 5.000
      vertex 0.000 118.300 5.000
    endloop
  endfacet
  facet normal 0.000000 0.000000 -1.000000
    outer loop
      vertex 10.000 0.000 0.000
      vertex 0.000 10.000 0.000
      vertex 0.000 118.300 0.000
    endloop
  endfacet
  facet normal 0.000000 0.000000 1.000000
    outer loop
      vertex 10.000 0.000 5.000
      vertex 0.000 118.300 5.000
      vertex 0.000 10.000 5.000
    endloop
  endfacet
  facet normal 0.000000 -1.000000 0.000000
    outer loop
      vertex 10.000 0.000 0.000
      vertex 64.164 0.000 0.000
      vertex 64.164 0.000 5.000
    endloop
  endfacet
  facet normal 0.000000 -1.000000 0.000000
    outer loop
      vertex 10.000 0.000 0.000
      vertex 64.164 0.000 5.000
      vertex 10.000 0.000 5.000
    endloop
  endfacet
  facet normal 0.707107 -0.707107 0.000000
    outer loop
      vertex 64.164 0.000 0.000
      vertex 74.164 10.000 0.000
      vertex 74.164 10.000 5.000
    endloop
  endfacet
  facet normal 0.707107 -0.707107 0.000000
    outer loop
      vertex 64.164 0.000 0.000
      vertex 74.164 10.000 5.000
      vertex 64.164 0.000 5.000
    endloop
  endfacet
  facet normal 1.000000 0.000000 0.000000
    outer loop
      vertex 74.164 10.000 0.000
      vertex 74.164 118.300 0.000
      vertex 74.164 118.300 5.000
    endloop
  endfacet
  facet normal 1.000000 0.000000 0.000000
    outer loop
      vertex 74.164 10.000 0.000
      vertex 74.164 118.300 5.000
      vertex 74.164 10.000 5.000
    endloop
  endfacet
  facet normal 0.707107 0.707107 0.000000
    outer loop
      vertex 74.164 118.300 0.000
      vertex 64.164 128.300 0.000
      vertex 64.164 128.300 5.000
    endloop
  endfacet
  facet normal 0.707107 0.707107 -0.000000
    outer loop
      vertex 74.164 118.300 0.000
      vertex 64.164 128.300 5.000
      vertex 74.164 118.300 5.000
    endloop
  endfacet
  facet normal 0.000000 1.000000 0.000000
    outer loop
      vertex 64.164 128.300 0.000
      vertex 10.000 128.300 0.000
      vertex 10.000 128.300 5.000
    endloop
  endfacet
  facet normal 0.000000 1.000000 -0.000000
    outer loop
      vertex 64.164 128.300 0.000
      vertex 10.000 128.300 5.000
      vertex 64.164 128.300 5.000
    endloop
  endfacet
  facet normal -0.707107 0.707107 0.000000
    outer loop
      vertex 10.000 128.300 0.000
      vertex 0.000 118.300 0.000
      vertex 0.000 118.300 5.000
    endloop
  endfacet
  facet normal -0.707107 0.707107 0.000000
    outer loop
      vertex 10.000 128.300 0.000
      vertex 0.000 118.300 5.000
      vertex 10.000 128.300 5.000
    endloop
  endfacet
  facet normal -1.000000 0.000000 0.000000
    outer loop
      vertex 0.000 118.300 0.000
      vertex 0.000 10.000 0.000
      vertex 0.000 10.000 5.000
    endloop
  endfacet
  facet normal -1.000000 0.000000 0.000000
    outer loop
      vertex 0.000 118.300 0.000
      vertex 0.000 10.000 5.000
      vertex 0.000 118.300 5.000
    endloop
  endfacet
  facet normal -0.707107 -0.707107 0.000000
    outer loop
      vertex 0.000 10.000 0.000
      vertex 10.000 0.000 0.000
      vertex 10.000 0.000 5.000
    endloop
  endfacet
  facet normal -0.707107 -0.707107 0.000000
    outer loop
      vertex 0.000 10.000 0.000
      vertex 10.000 0.000 5.000
      vertex 0.000 10.000 5.000
    endloop
  endfacet
  facet normal 0.000000 1.000000 -0.000000
    outer loop
      vertex 11.282 51.301 5.000
      vertex 9.682 51.301 55.000
      vertex 11.282 51.301 55.000
    endloop
  endfacet
  facet normal 0.000000 -1.000000 0.000000
    outer loop
      vertex 11.282 55.801 5.000
      vertex 11.282 55.801 55.000
      vertex 9.682 55.801 55.000
    endloop
  endfacet
  facet normal 0.000000 1.000000 0.000000
    outer loop
      vertex 11.282 51.301 5.000
      vertex 8.962 51.301 49.000
      vertex 9.682 51.301 55.000
    endloop
  endfacet
  facet normal 0.000000 -1.000000 0.000000
    outer loop
      vertex 11.282 55.801 5.000
      vertex 9.682 55.801 55.000
      vertex 8.962 55.801 49.000
    endloop
  endfacet
  facet normal 0.000000 1.000000 0.000000
    outer loop
      vertex 11.282 51.301 5.000
      vertex 8.082 51.301 20.000
      vertex 8.962 51.301 49.000
    endloop
  endfacet
  facet normal 0.000000 -1.000000 0.000000
    outer loop
      vertex 11.282 55.801 5.000
      vertex 8.962 55.801 49.000
      vertex 8.082 55.801 20.000
    endloop
  endfacet
  facet normal 0.000000 1.000000 0.000000
    outer loop
      vertex 11.282 51.301 5.000
      vertex 6.282 51.301 17.000
      vertex 8.082 51.301 20.000
    endloop
  endfacet
  facet normal 0.000000 -1.000000 0.000000
    outer loop
      vertex 11.282 55.801 5.000
      vertex 8.082 55.801 20.000
      vertex 6.282 55.801 17.000
    endloop
  endfacet
  facet normal 0.000000 1.000000 0.000000
    outer loop
      vertex 11.282 51.301 5.000
      vertex 6.282 51.301 5.000
      vertex 6.282 51.301 17.000
    endloop
  endfacet
  facet normal 0.000000 -1.000000 0.000000
    outer loop
      vertex 11.282 55.801 5.000
      vertex 6.282 55.801 17.000
      vertex 6.282 55.801 5.000
    endloop
  endfacet
  facet normal 1.000000 0.000000 0.000000
    outer loop
      vertex 11.282 51.301 5.000
      vertex 11.282 55.801 5.000
      vertex 11.282 55.801 55.000
    endloop
  endfacet
  facet normal 1.000000 0.000000 0.000000
    outer loop
      vertex 11.282 51.301 5.000
      vertex 11.282 55.801 55.000
      vertex 11.282 51.301 55.000
    endloop
  endfacet
  facet normal 0.000000 -0.000000 1.000000
    outer loop
      vertex 11.282 51.301 55.000
      vertex 11.282 55.801 55.000
      vertex 9.682 55.801 55.000
    endloop
  endfacet
  facet normal 0.000000 0.000000 1.000000
    outer loop
      vertex 11.282 51.301 55.000
      vertex 9.682 55.801 55.000
      vertex 9.682 51.301 55.000
    endloop
  endfacet
  facet normal -0.992877 0.000000 0.119145
    outer loop
      vertex 9.682 51.301 55.000
      vertex 9.682 55.801 55.000
      vertex 8.962 55.801 49.000
    endloop
  endfacet
  facet normal -0.992877 0.000000 0.119145
    outer loop
      vertex 9.682 51.301 55.000
      vertex 8.962 55.801 49.000
      vertex 8.962 51.301 49.000
    endloop
  endfacet
  facet normal -0.999540 0.000000 0.030331
    outer loop
      vertex 8.962 51.301 49.000
      vertex 8.962 55.801 49.000
      vertex 8.082 55.801 20.000
    endloop
  endfacet
  facet normal -0.999540 0.000000 0.030331
    outer loop
      vertex 8.962 51.301 49.000
      vertex 8.082 55.801 20.000
      vertex 8.082 51.301 20.000
    endloop
  endfacet
  facet normal -0.857493 0.000000 0.514496
    outer loop
      vertex 8.082 51.301 20.000
      vertex 8.082 55.801 20.000
      vertex 6.282 55.801 17.000
    endloop
  endfacet
  facet normal -0.857493 0.000000 0.514496
    outer loop
      vertex 8.082 51.301 20.000
      vertex 6.282 55.801 17.000
      vertex 6.282 51.301 17.000
    endloop
  endfacet
  facet normal -1.000000 0.000000 0.000000
    outer loop
      vertex 6.282 51.301 17.000
      vertex 6.282 55.801 17.000
      vertex 6.282 55.801 5.000
    endloop
  endfacet
  facet normal -1.000000 0.000000 0.000000
    outer loop
      vertex 6.282 51.301 17.000
      vertex 6.282 55.801 5.000
      vertex 6.282 51.301 5.000
    endloop
  endfacet
  facet normal 0.000000 0.000000 -1.000000
    outer loop
      vertex 6.282 51.301 5.000
      vertex 6.282 55.801 5.000
      vertex 11.282 55.801 5.000
    endloop
  endfacet
  facet normal 0.000000 0.000000 -1.000000
    outer loop
      vertex 6.282 51.301 5.000
      vertex 11.282 55.801 5.000
      vertex 11.282 51.301 5.000
    endloop
  endfacet
  facet normal 0.000000 1.000000 -0.000000
    outer loop
      vertex 11.282 72.499 5.000
      vertex 9.682 72.499 55.000
      vertex 11.282 72.499 55.000
    endloop
  endfacet
  facet normal 0.000000 -1.000000 0.000000
    outer loop
      vertex 11.282 76.999 5.000
      vertex 11.282 76.999 55.000
      vertex 9.682 76.999 55.000
    endloop
  endfacet
  facet normal 0.000000 1.000000 0.000000
    outer loop
      vertex 11.282 72.499 5.000
      vertex 8.962 72.499 49.000
      vertex 9.682 72.499 55.000
    endloop
  endfacet
  facet normal 0.000000 -1.000000 0.000000
    outer loop
      vertex 11.282 76.999 5.000
      vertex 9.682 76.999 55.000
      vertex 8.962 76.999 49.000
    endloop
  endfacet
  facet normal 0.000000 1.000000 0.000000
    outer loop
      vertex 11.282 72.499 5.000
      vertex 8.082 72.499 20.000
      vertex 8.962 72.499 49.000
    endloop
  endfacet
  facet normal 0.000000 -1.000000 0.000000
    outer loop
      vertex 11.282 76.999 5.000
      vertex 8.962 76.999 49.000
      vertex 8.082 76.999 20.000
    endloop
  endfacet
  facet normal 0.000000 1.000000 0.000000
    outer loop
      vertex 11.282 72.499 5.000
      vertex 6.282 72.499 17.000
      vertex 8.082 72.499 20.000
    endloop
  endfacet
  facet normal 0.000000 -1.000000 0.000000
    outer loop
      vertex 11.282 76.999 5.000
      vertex 8.082 76.999 20.000
      vertex 6.282 76.999 17.000
    endloop
  endfacet
  facet normal 0.000000 1.000000 0.000000
    outer loop
      vertex 11.282 72.499 5.000
      vertex 6.282 72.499 5.000
      vertex 6.282 72.499 17.000
    endloop
  endfacet
  facet normal 0.000000 -1.000000 0.000000
    outer loop
      vertex 11.282 76.999 5.000
      vertex 6.282 76.999 17.000
      vertex 6.282 76.999 5.000
    endloop
  endfacet
  facet normal 1.000000 0.000000 0.000000
    outer loop
      vertex 11.282 72.499 5.000
      vertex 11.282 76.999 5.000
      vertex 11.282 76.999 55.000
    endloop
  endfacet
  facet normal 1.000000 0.000000 0.000000
    outer loop
      vertex 11.282 72.499 5.000
      vertex 11.282 76.999 55.000
      vertex 11.282 72.499 55.000
    endloop
  endfacet
  facet normal 0.000000 -0.000000 1.000000
    outer loop
      vertex 11.282 72.499 55.000
      vertex 11.282 76.999 55.000
      vertex 9.682 76.999 55.000
    endloop
  endfacet
  facet normal 0.000000 0.000000 1.000000
    outer loop
      vertex 11.282 72.499 55.000
      vertex 9.682 76.999 55.000
      vertex 9.682 72.499 55.000
    endloop
  endfacet
  facet normal -0.992877 0.000000 0.119145
    outer loop
      vertex 9.682 72.499 55.000
      vertex 9.682 76.999 55.000
      vertex 8.962 76.999 49.000
    endloop
  endfacet
  facet normal -0.992877 0.000000 0.119145
    outer loop
      vertex 9.682 72.499 55.000
      vertex 8.962 76.999 49.000
      vertex 8.962 72.499 49.000
    endloop
  endfacet
  facet normal -0.999540 0.000000 0.030331
    outer loop
      vertex 8.962 72.499 49.000
      vertex 8.962 76.999 49.000
      vertex 8.082 76.999 20.000
    endloop
  endfacet
  facet normal -0.999540 0.000000 0.030331
    outer loop
      vertex 8.962 72.499 49.000
      vertex 8.082 76.999 20.000
      vertex 8.082 72.499 20.000
    endloop
  endfacet
  facet normal -0.857493 0.000000 0.514496
    outer loop
      vertex 8.082 72.499 20.000
      vertex 8.082 76.999 20.000
      vertex 6.282 76.999 17.000
    endloop
  endfacet
  facet normal -0.857493 0.000000 0.514496
    outer loop
      vertex 8.082 72.499 20.000
      vertex 6.282 76.999 17.000
      vertex 6.282 72.499 17.000
    endloop
  endfacet
  facet normal -1.000000 0.000000 0.000000
    outer loop
      vertex 6.282 72.499 17.000
      vertex 6.282 76.999 17.000
      vertex 6.282 76.999 5.000
    endloop
  endfacet
  facet normal -1.000000 0.000000 0.000000
    outer loop
      vertex 6.282 72.499 17.000
      vertex 6.282 76.999 5.000
      vertex 6.282 72.499 5.000
    endloop
  endfacet
  facet normal 0.000000 0.000000 -1.000000
    outer loop
      vertex 6.282 72.499 5.000
      vertex 6.282 76.999 5.000
      vertex 11.282 76.999 5.000
    endloop
  endfacet
  facet normal 0.000000 0.000000 -1.000000
    outer loop
      vertex 6.282 72.499 5.000
      vertex 11.282 76.999 5.000
      vertex 11.282 72.499 5.000
    endloop
  endfacet
  facet normal 0.000000 1.000000 0.000000
    outer loop
      vertex 34.082 19.250 0.000
      vertex 40.082 19.250 17.000
      vertex 40.082 19.250 0.000
    endloop
  endfacet
  facet normal 0.000000 -1.000000 0.000000
    outer loop
      vertex 34.082 109.050 0.000
      vertex 40.082 109.050 0.000
      vertex 40.082 109.050 17.000
    endloop
  endfacet
  facet normal 0.000000 1.000000 0.000000
    outer loop
      vertex 34.082 19.250 0.000
      vertex 37.882 19.250 17.000
      vertex 40.082 19.250 17.000
    endloop
  endfacet
  facet normal 0.000000 -1.000000 0.000000
    outer loop
      vertex 34.082 109.050 0.000
      vertex 40.082 109.050 17.000
      vertex 37.882 109.050 17.000
    endloop
  endfacet
  facet normal 0.000000 1.000000 0.000000
    outer loop
      vertex 34.082 19.250 0.000
      vertex 36.282 19.250 17.000
      vertex 37.882 19.250 17.000
    endloop
  endfacet
  facet normal 0.000000 -1.000000 0.000000
    outer loop
      vertex 34.082 109.050 0.000
      vertex 37.882 109.050 17.000
      vertex 36.282 109.050 17.000
    endloop
  endfacet
  facet normal 0.000000 1.000000 0.000000
    outer loop
      vertex 34.082 19.250 0.000
      vertex 34.082 19.250 17.000
      vertex 36.282 19.250 17.000
    endloop
  endfacet
  facet normal 0.000000 -1.000000 0.000000
    outer loop
      vertex 34.082 109.050 0.000
      vertex 36.282 109.050 17.000
      vertex 34.082 109.050 17.000
    endloop
  endfacet
  facet normal 0.000000 0.000000 -1.000000
    outer loop
      vertex 34.082 19.250 0.000
      vertex 34.082 51.301 0.000
      vertex 40.082 51.301 0.000
    endloop
  endfacet
  facet normal 0.000000 0.000000 -1.000000
    outer loop
      vertex 34.082 19.250 0.000
      vertex 40.082 51.301 0.000
      vertex 40.082 19.250 0.000
    endloop
  endfacet
  facet normal 1.000000 0.000000 0.000000
    outer loop
      vertex 40.082 19.250 0.000
      vertex 40.082 51.301 0.000
      vertex 40.082 51.301 17.000
    endloop
  endfacet
  facet normal 1.000000 0.000000 0.000000
    outer loop
      vertex 40.082 19.250 0.000
      vertex 40.082 51.301 17.000
      vertex 40.082 19.250 17.000
    endloop
  endfacet
  facet normal 0.000000 -0.000000 1.000000
    outer loop
      vertex 40.082 19.250 17.000
      vertex 40.082 51.301 17.000
      vertex 37.882 51.301 17.000
    endloop
  endfacet
  facet normal 0.000000 0.000000 1.000000
    outer loop
      vertex 40.082 19.250 17.000
      vertex 37.882 51.301 17.000
      vertex 37.882 19.250 17.000
    endloop
  endfacet
  facet normal 0.000000 -0.000000 1.000000
    outer loop
      vertex 37.882 19.250 17.000
      vertex 37.882 51.301 17.000
      vertex 36.282 51.301 17.000
    endloop
  endfacet
  facet normal 0.000000 0.000000 1.000000
    outer loop
      vertex 37.882 19.250 17.000
      vertex 36.282 51.301 17.000
      vertex 36.282 19.250 17.000
    endloop
  endfacet
  facet normal 0.000000 -0.000000 1.000000
    outer loop
      vertex 36.282 19.250 17.000
      vertex 36.282 51.301 17.000
      vertex 34.082 51.301 17.000
    endloop
  endfacet
  facet normal 0.000000 0.000000 1.000000
    outer loop
      vertex 36.282 19.250 17.000
      vertex 34.082 51.301 17.000
      vertex 34.082 19.250 17.000
    endloop
  endfacet
  facet normal -1.000000 0.000000 0.000000
    outer loop
      vertex 34.082 19.250 17.000
      vertex 34.082 51.301 17.000
      vertex 34.082 51.301 0.000
    endloop
  endfacet
  facet normal -1.000000 0.000000 0.000000
    outer loop
      vertex 34.082 19.250 17.000
      vertex 34.082 51.301 0.000
      vertex 34.082 19.250 0.000
    endloop
  endfacet
  facet normal 0.000000 0.000000 0.000000
    outer loop
      vertex 34.082 51.301 0.000
      vertex 34.082 51.301 0.000
      vertex 40.082 51.301 0.000
    endloop
  endfacet
  facet normal 0.000000 0.000000 0.000000
    outer loop
      vertex 34.082 51.301 0.000
      vertex 40.082 51.301 0.000
      vertex 40.082 51.301 0.000
    endloop
  endfacet
  facet normal 0.000000 0.000000 0.000000
    outer loop
      vertex 40.082 51.301 0.000
      vertex 40.082 51.301 0.000
      vertex 40.082 51.301 52.000
    endloop
  endfacet
  facet normal 0.000000 0.000000 0.000000
    outer loop
      vertex 40.082 51.301 0.000
      vertex 40.082 51.301 52.000
      vertex 40.082 51.301 17.000
    endloop
  endfacet
  facet normal 0.000000 -1.000000 0.000000
    outer loop
      vertex 40.082 51.301 17.000
      vertex 40.082 51.301 52.000
      vertex 37.882 51.301 55.000
    endloop
  endfacet
  facet normal 0.000000 -1.000000 0.000000
    outer loop
      vertex 40.082 51.301 17.000
      vertex 37.882 51.301 55.000
      vertex 37.882 51.301 17.000
    endloop
  endfacet
  facet normal 0.000000 -1.000000 0.000000
    outer loop
      vertex 37.882 51.301 17.000
      vertex 37.882 51.301 55.000
      vertex 36.282 51.301 55.000
    endloop
  endfacet
  facet normal 0.000000 -1.000000 0.000000
    outer loop
      vertex 37.882 51.301 17.000
      vertex 36.282 51.301 55.000
      vertex 36.282 51.301 17.000
    endloop
  endfacet
  facet normal 0.000000 -1.000000 0.000000
    outer loop
      vertex 36.282 51.301 17.000
      vertex 36.282 51.301 55.000
      vertex 34.082 51.301 52.000
    endloop
  endfacet
  facet normal 0.000000 -1.000000 0.000000
    outer loop
      vertex 36.282 51.301 17.000
      vertex 34.082 51.301 52.000
      vertex 34.082 51.301 17.000
    endloop
  endfacet
  facet normal 0.000000 0.000000 0.000000
    outer loop
      vertex 34.082 51.301 17.000
      vertex 34.082 51.301 52.000
      vertex 34.082 51.301 0.000
    endloop
  endfacet
  facet normal 0.000000 0.000000 0.000000
    outer loop
      vertex 34.082 51.301 17.000
      vertex 34.082 51.301 0.000
      vertex 34.082 51.301 0.000
    endloop
  endfacet
  facet normal 0.000000 0.000000 -1.000000
    outer loop
      vertex 34.082 51.301 0.000
      vertex 34.082 55.801 0.000
      vertex 40.082 55.801 0.000
    endloop
  endfacet
  facet normal 0.000000 0.000000 -1.000000
    outer loop
      vertex 34.082 51.301 0.000
      vertex 40.082 55.801 0.000
      vertex 40.082 51.301 0.000
    endloop
  endfacet
  facet normal 1.000000 0.000000 0.000000
    outer loop
      vertex 40.082 51.301 0.000
      vertex 40.082 55.801 0.000
      vertex 40.082 55.801 52.000
    endloop
  endfacet
  facet normal 1.000000 0.000000 0.000000
    outer loop
      vertex 40.082 51.301 0.000
      vertex 40.082 55.801 52.000
      vertex 40.082 51.301 52.000
    endloop
  endfacet
  facet normal 0.806405 -0.000000 0.591364
    outer loop
      vertex 40.082 51.301 52.000
      vertex 40.082 55.801 52.000
      vertex 37.882 55.801 55.000
    endloop
  endfacet
  facet normal 0.806405 0.000000 0.591364
    outer loop
      vertex 40.082 51.301 52.000
      vertex 37.882 55.801 55.000
      vertex 37.882 51.301 55.000
    endloop
  endfacet
  facet normal 0.000000 -0.000000 1.000000
    outer loop
      vertex 37.882 51.301 55.000
      vertex 37.882 55.801 55.000
      vertex 36.282 55.801 55.000
    endloop
  endfacet
  facet normal 0.000000 0.000000 1.000000
    outer loop
      vertex 37.882 51.301 55.000
      vertex 36.282 55.801 55.000
      vertex 36.282 51.301 55.000
    endloop
  endfacet
  facet normal -0.806405 0.000000 0.591364
    outer loop
      vertex 36.282 51.301 55.000
      vertex 36.282 55.801 55.000
      vertex 34.082 55.801 52.000
    endloop
  endfacet
  facet normal -0.806405 0.000000 0.591364
    outer loop
      vertex 36.282 51.301 55.000
      vertex 34.082 55.801 52.000
      vertex 34.082 51.301 52.000
    endloop
  endfacet
  facet normal -1.000000 0.000000 0.000000
    outer loop
      vertex 34.082 51.301 52.000
      vertex 34.082 55.801 52.000
      vertex 34.082 55.801 0.000
    endloop
  endfacet
  facet normal -1.000000 0.000000 0.000000
    outer loop
      vertex 34.082 51.301 52.000
      vertex 34.082 55.801 0.000
      vertex 34.082 51.301 0.000
    endloop
  endfacet
  facet normal 0.000000 0.000000 0.000000
    outer loop
      vertex 34.082 55.801 0.000
      vertex 34.082 55.801 0.000
      vertex 40.082 55.801 0.000
    endloop
  endfacet
  facet normal 0.000000 0.000000 0.000000
    outer loop
      vertex 34.082 55.801 0.000
      vertex 40.082 55.801 0.000
      vertex 40.082 55.801 0.000
    endloop
  endfacet
  facet normal 0.000000 0.000000 0.000000
    outer loop
      vertex 40.082 55.801 0.000
      vertex 40.082 55.801 0.000
      vertex 40.082 55.801 17.000
    endloop
  endfacet
  facet normal 0.000000 0.000000 0.000000
    outer loop
      vertex 40.082 55.801 0.000
      vertex 40.082 55.801 17.000
      vertex 40.082 55.801 52.000
    endloop
  endfacet
  facet normal 0.000000 1.000000 0.000000
    outer loop
      vertex 40.082 55.801 52.000
      vertex 40.082 55.801 17.000
      vertex 37.882 55.801 17.000
    endloop
  endfacet
  facet normal 0.000000 1.000000 0.000000
    outer loop
      vertex 40.082 55.801 52.000
      vertex 37.882 55.801 17.000
      vertex 37.882 55.801 55.000
    endloop
  endfacet
  facet normal 0.000000 1.000000 0.000000
    outer loop
      vertex 37.882 55.801 55.000
      vertex 37.882 55.801 17.000
      vertex 36.282 55.801 17.000
    endloop
  endfacet
  facet normal 0.000000 1.000000 0.000000
    outer loop
      vertex 37.882 55.801 55.000
      vertex 36.282 55.801 17.000
      vertex 36.282 55.801 55.000
    endloop
  endfacet
  facet normal 0.000000 1.000000 0.000000
    outer loop
      vertex 36.282 55.801 55.000
      vertex 36.282 55.801 17.000
      vertex 34.082 55.801 17.000
    endloop
  endfacet
  facet normal 0.000000 1.000000 0.000000
    outer loop
      vertex 36.282 55.801 55.000
      vertex 34.082 55.801 17.000
      vertex 34.082 55.801 52.000
    endloop
  endfacet
  facet normal 0.000000 0.000000 0.000000
    outer loop
      vertex 34.082 55.801 52.000
      vertex 34.082 55.801 17.000
      vertex 34.082 55.801 0.000
    endloop
  endfacet
  facet normal 0.000000 0.000000 0.000000
    outer loop
      vertex 34.082 55.801 52.000
      vertex 34.082 55.801 0.000
      vertex 34.082 55.801 0.000
    endloop
  endfacet
  facet normal 0.000000 0.000000 -1.000000
    outer loop
      vertex 34.082 55.801 0.000
      vertex 34.082 72.499 0.000
      vertex 40.082 72.499 0.000
    endloop
  endfacet
  facet normal 0.000000 0.000000 -1.000000
    outer loop
      vertex 34.082 55.801 0.000
      vertex 40.082 72.499 0.000
      vertex 40.082 55.801 0.000
    endloop
  endfacet
  facet normal 1.000000 0.000000 0.000000
    outer loop
      vertex 40.082 55.801 0.000
      vertex 40.082 72.499 0.000
      vertex 40.082 72.499 17.000
    endloop
  endfacet
  facet normal 1.000000 0.000000 0.000000
    outer loop
      vertex 40.082 55.801 0.000
      vertex 40.082 72.499 17.000
      vertex 40.082 55.801 17.000
    endloop
  endfacet
  facet normal 0.000000 -0.000000 1.000000
    outer loop
      vertex 40.082 55.801 17.000
      vertex 40.082 72.499 17.000
      vertex 37.882 72.499 17.000
    endloop
  endfacet
  facet normal 0.000000 0.000000 1.000000
    outer loop
      vertex 40.082 55.801 17.000
      vertex 37.882 72.499 17.000
      vertex 37.882 55.801 17.000
    endloop
  endfacet
  facet normal 0.000000 -0.000000 1.000000
    outer loop
      vertex 37.882 55.801 17.000
      vertex 37.882 72.499 17.000
      vertex 36.282 72.499 17.000
    endloop
  endfacet
  facet normal 0.000000 0.000000 1.000000
    outer loop
      vertex 37.882 55.801 17.000
      vertex 36.282 72.499 17.000
      vertex 36.282 55.801 17.000
    endloop
  endfacet
  facet normal 0.000000 -0.000000 1.000000
    outer loop
      vertex 36.282 55.801 17.000
      vertex 36.282 72.499 17.000
      vertex 34.082 72.499 17.000
    endloop
  endfacet
  facet normal 0.000000 0.000000 1.000000
    outer loop
      vertex 36.282 55.801 17.000
      vertex 34.082 72.499 17.000
      vertex 34.082 55.801 17.000
    endloop
  endfacet
  facet normal -1.000000 0.000000 0.000000
    outer loop
      vertex 34.082 55.801 17.000
      vertex 34.082 72.499 17.000
      vertex 34.082 72.499 0.000
    endloop
  endfacet
  facet normal -1.000000 0.000000 0.000000
    outer loop
      vertex 34.082 55.801 17.000
      vertex 34.082 72.499 0.000
      vertex 34.082 55.801 0.000
    endloop
  endfacet
  facet normal 0.000000 0.000000 0.000000
    outer loop
      vertex 34.082 72.499 0.000
      vertex 34.082 72.499 0.000
      vertex 40.082 72.499 0.000
    endloop
  endfacet
  facet normal 0.000000 0.000000 0.000000
    outer loop
      vertex 34.082 72.499 0.000
      vertex 40.082 72.499 0.000
      vertex 40.082 72.499 0.000
    endloop
  endfacet
  facet normal 0.000000 0.000000 0.000000
    outer loop
      vertex 40.082 72.499 0.000
      vertex 40.082 72.499 0.000
      vertex 40.082 72.499 52.000
    endloop
  endfacet
  facet normal 0.000000 0.000000 0.000000
    outer loop
      vertex 40.082 72.499 0.000
      vertex 40.082 72.499 52.000
      vertex 40.082 72.499 17.000
    endloop
  endfacet
  facet normal 0.000000 -1.000000 0.000000
    outer loop
      vertex 40.082 72.499 17.000
      vertex 40.082 72.499 52.000
      vertex 37.882 72.499 55.000
    endloop
  endfacet
  facet normal 0.000000 -1.000000 0.000000
    outer loop
      vertex 40.082 72.499 17.000
      vertex 37.882 72.499 55.000
      vertex 37.882 72.499 17.000
    endloop
  endfacet
  facet normal 0.000000 -1.000000 0.000000
    outer loop
      vertex 37.882 72.499 17.000
      vertex 37.882 72.499 55.000
      vertex 36.282 72.499 55.000
    endloop
  endfacet
  facet normal 0.000000 -1.000000 0.000000
    outer loop
      vertex 37.882 72.499 17.000
      vertex 36.282 72.499 55.000
      vertex 36.282 72.499 17.000
    endloop
  endfacet
  facet normal 0.000000 -1.000000 0.000000
    outer loop
      vertex 36.282 72.499 17.000
      vertex 36.282 72.499 55.000
      vertex 34.082 72.499 52.000
    endloop
  endfacet
  facet normal 0.000000 -1.000000 0.000000
    outer loop
      vertex 36.282 72.499 17.000
      vertex 34.082 72.499 52.000
      vertex 34.082 72.499 17.000
    endloop
  endfacet
  facet normal 0.000000 0.000000 0.000000
    outer loop
      vertex 34.082 72.499 17.000
      vertex 34.082 72.499 52.000
      vertex 34.082 72.499 0.000
    endloop
  endfacet
  facet normal 0.000000 0.000000 0.000000
    outer loop
      vertex 34.082 72.499 17.000
      vertex 34.082 72.499 0.000
      vertex 34.082 72.499 0.000
    endloop
  endfacet
  facet normal 0.000000 0.000000 -1.000000
    outer loop
      vertex 34.082 72.499 0.000
      vertex 34.082 76.999 0.000
      vertex 40.082 76.999 0.000
    endloop
  endfacet
  facet normal 0.000000 0.000000 -1.000000
    outer loop
      vertex 34.082 72.499 0.000
      vertex 40.082 76.999 0.000
      vertex 40.082 72.499 0.000
    endloop
  endfacet
  facet normal 1.000000 0.000000 0.000000
    outer loop
      vertex 40.082 72.499 0.000
      vertex 40.082 76.999 0.000
      vertex 40.082 76.999 52.000
    endloop
  endfacet
  facet normal 1.000000 0.000000 0.000000
    outer loop
      vertex 40.082 72.499 0.000
      vertex 40.082 76.999 52.000
      vertex 40.082 72.499 52.000
    endloop
  endfacet
  facet normal 0.806405 -0.000000 0.591364
    outer loop
      vertex 40.082 72.499 52.000
      vertex 40.082 76.999 52.000
      vertex 37.882 76.999 55.000
    endloop
  endfacet
  facet normal 0.806405 0.000000 0.591364
    outer loop
      vertex 40.082 72.499 52.000
      vertex 37.882 76.999 55.000
      vertex 37.882 72.499 55.000
    endloop
  endfacet
  facet normal 0.000000 -0.000000 1.000000
    outer loop
      vertex 37.882 72.499 55.000
      vertex 37.882 76.999 55.000
      vertex 36.282 76.999 55.000
    endloop
  endfacet
  facet normal 0.000000 0.000000 1.000000
    outer loop
      vertex 37.882 72.499 55.000
      vertex 36.282 76.999 55.000
      vertex 36.282 72.499 55.000
    endloop
  endfacet
  facet normal -0.806405 0.000000 0.591364
    outer loop
      vertex 36.282 72.499 55.000
      vertex 36.282 76.999 55.000
      vertex 34.082 76.999 52.000
    endloop
  endfacet
  facet normal -0.806405 0.000000 0.591364
    outer loop
      vertex 36.282 72.499 55.000
      vertex 34.082 76.999 52.000
      vertex 34.082 72.499 52.000
    endloop
  endfacet
  facet normal -1.000000 0.000000 0.000000
    outer loop
      vertex 34.082 72.499 52.000
      vertex 34.082 76.999 52.000
      vertex 34.082 76.999 0.000
    endloop
  endfacet
  facet normal -1.000000 0.000000 0.000000
    outer loop
      vertex 34.082 72.499 52.000
      vertex 34.082 76.999 0.000
      vertex 34.082 72.499 0.000
    endloop
  endfacet
  facet normal 0.000000 0.000000 0.000000
    outer loop
      vertex 34.082 76.999 0.000
      vertex 34.082 76.999 0.000
      vertex 40.082 76.999 0.000
    endloop
  endfacet
  facet normal 0.000000 0.000000 0.000000
    outer loop
      vertex 34.082 76.999 0.000
      vertex 40.082 76.999 0.000
      vertex 40.082 76.999 0.000
    endloop
  endfacet
  facet normal 0.000000 0.000000 0.000000
    outer loop
      vertex 40.082 76.999 0.000
      vertex 40.082 76.999 0.000
      vertex 40.082 76.999 17.000
    endloop
  endfacet
  facet normal 0.000000 0.000000 0.000000
    outer loop
      vertex 40.082 76.999 0.000
      vertex 40.082 76.999 17.000
      vertex 40.082 76.999 52.000
    endloop
  endfacet
  facet normal 0.000000 1.000000 0.000000
    outer loop
      vertex 40.082 76.999 52.000
      vertex 40.082 76.999 17.000
      vertex 37.882 76.999 17.000
    endloop
  endfacet
  facet normal 0.000000 1.000000 0.000000
    outer loop
      vertex 40.082 76.999 52.000
      vertex 37.882 76.999 17.000
      vertex 37.882 76.999 55.000
    endloop
  endfacet
  facet normal 0.000000 1.000000 0.000000
    outer loop
      vertex 37.882 76.999 55.000
      vertex 37.882 76.999 17.000
      vertex 36.282 76.999 17.000
    endloop
  endfacet
  facet normal 0.000000 1.000000 0.000000
    outer loop
      vertex 37.882 76.999 55.000
      vertex 36.282 76.999 17.000
      vertex 36.282 76.999 55.000
    endloop
  endfacet
  facet normal 0.000000 1.000000 0.000000
    outer loop
      vertex 36.282 76.999 55.000
      vertex 36.282 76.999 17.000
      vertex 34.082 76.999 17.000
    endloop
  endfacet
  facet normal 0.000000 1.000000 0.000000
    outer loop
      vertex 36.282 76.999 55.000
      vertex 34.082 76.999 17.000
      vertex 34.082 76.999 52.000
    endloop
  endfacet
  facet normal 0.000000 0.000000 0.000000
    outer loop
      vertex 34.082 76.999 52.000
      vertex 34.082 76.999 17.000
      vertex 34.082 76.999 0.000
    endloop
  endfacet
  facet normal 0.000000 0.000000 0.000000
    outer loop
      vertex 34.082 76.999 52.000
      vertex 34.082 76.999 0.000
      vertex 34.082 76.999 0.000
    endloop
  endfacet
  facet normal 0.000000 0.000000 -1.000000
    outer loop
      vertex 34.082 76.999 0.000
      vertex 34.082 109.050 0.000
      vertex 40.082 109.050 0.000
    endloop
  endfacet
  facet normal 0.000000 0.000000 -1.000000
    outer loop
      vertex 34.082 76.999 0.000
      vertex 40.082 109.050 0.000
      vertex 40.082 76.999 0.000
    endloop
  endfacet
  facet normal 1.000000 0.000000 0.000000
    outer loop
      vertex 40.082 76.999 0.000
      vertex 40.082 109.050 0.000
      vertex 40.082 109.050 17.000
    endloop
  endfacet
  facet normal 1.000000 0.000000 0.000000
    outer loop
      vertex 40.082 76.999 0.000
      vertex 40.082 109.050 17.000
      vertex 40.082 76.999 17.000
    endloop
  endfacet
  facet normal 0.000000 -0.000000 1.000000
    outer loop
      vertex 40.082 76.999 17.000
      vertex 40.082 109.050 17.000
      vertex 37.882 109.050 17.000
    endloop
  endfacet
  facet normal 0.000000 0.000000 1.000000
    outer loop
      vertex 40.082 76.999 17.000
      vertex 37.882 109.050 17.000
      vertex 37.882 76.999 17.000
    endloop
  endfacet
  facet normal 0.000000 -0.000000 1.000000
    outer loop
      vertex 37.882 76.999 17.000
      vertex 37.882 109.050 17.000
      vertex 36.282 109.050 17.000
    endloop
  endfacet
  facet normal 0.000000 0.000000 1.000000
    outer loop
      vertex 37.882 76.999 17.000
      vertex 36.282 109.050 17.000
      vertex 36.282 76.999 17.000
    endloop
  endfacet
  facet normal 0.000000 -0.000000 1.000000
    outer loop
      vertex 36.282 76.999 17.000
      vertex 36.282 109.050 17.000
      vertex 34.082 109.050 17.000
    endloop
  endfacet
  facet normal 0.000000 0.000000 1.000000
    outer loop
      vertex 36.282 76.999 17.000
      vertex 34.082 109.050 17.000
      vertex 34.082 76.999 17.000
    endloop
  endfacet
  facet normal -1.000000 0.000000 0.000000
    outer loop
      vertex 34.082 76.999 17.000
      vertex 34.082 109.050 17.000
      vertex 34.082 109.050 0.000
    endloop
  endfacet
  facet normal -1.000000 0.000000 0.000000
    outer loop
      vertex 34.082 76.999 17.000
      vertex 34.082 109.050 0.000
      vertex 34.082 76.999 0.000
    endloop
  endfacet
  facet normal 0.000000 -1.000000 0.000000
    outer loop
      vertex 62.882 51.301 5.000
      vertex 64.482 51.301 55.000
      vertex 62.882 51.301 55.000
    endloop
  endfacet
  facet normal 0.000000 1.000000 0.000000
    outer loop
      vertex 62.882 55.801 5.000
      vertex 62.882 55.801 55.000
      vertex 64.482 55.801 55.000
    endloop
  endfacet
  facet normal 0.000000 -1.000000 0.000000
    outer loop
      vertex 62.882 51.301 5.000
      vertex 65.202 51.301 49.000
      vertex 64.482 51.301 55.000
    endloop
  endfacet
  facet normal 0.000000 1.000000 0.000000
    outer loop
      vertex 62.882 55.801 5.000
      vertex 64.482 55.801 55.000
      vertex 65.202 55.801 49.000
    endloop
  endfacet
  facet normal 0.000000 -1.000000 0.000000
    outer loop
      vertex 62.882 51.301 5.000
      vertex 66.082 51.301 20.000
      vertex 65.202 51.301 49.000
    endloop
  endfacet
  facet normal 0.000000 1.000000 0.000000
    outer loop
      vertex 62.882 55.801 5.000
      vertex 65.202 55.801 49.000
      vertex 66.082 55.801 20.000
    endloop
  endfacet
  facet normal 0.000000 -1.000000 0.000000
    outer loop
      vertex 62.882 51.301 5.000
      vertex 67.882 51.301 17.000
      vertex 66.082 51.301 20.000
    endloop
  endfacet
  facet normal 0.000000 1.000000 0.000000
    outer loop
      vertex 62.882 55.801 5.000
      vertex 66.082 55.801 20.000
      vertex 67.882 55.801 17.000
    endloop
  endfacet
  facet normal 0.000000 -1.000000 0.000000
    outer loop
      vertex 62.882 51.301 5.000
      vertex 67.882 51.301 5.000
      vertex 67.882 51.301 17.000
    endloop
  endfacet
  facet normal 0.000000 1.000000 0.000000
    outer loop
      vertex 62.882 55.801 5.000
      vertex 67.882 55.801 17.000
      vertex 67.882 55.801 5.000
    endloop
  endfacet
  facet normal 1.000000 0.000000 0.000000
    outer loop
      vertex 62.882 51.301 5.000
      vertex 62.882 55.801 5.000
      vertex 62.882 55.801 55.000
    endloop
  endfacet
  facet normal 1.000000 0.000000 0.000000
    outer loop
      vertex 62.882 51.301 5.000
      vertex 62.882 55.801 55.000
      vertex 62.882 51.301 55.000
    endloop
  endfacet
  facet normal 0.000000 0.000000 -1.000000
    outer loop
      vertex 62.882 51.301 55.000
      vertex 62.882 55.801 55.000
      vertex 64.482 55.801 55.000
    endloop
  endfacet
  facet normal 0.000000 0.000000 -1.000000
    outer loop
      vertex 62.882 51.301 55.000
      vertex 64.482 55.801 55.000
      vertex 64.482 51.301 55.000
    endloop
  endfacet
  facet normal -0.992877 0.000000 -0.119145
    outer loop
      vertex 64.482 51.301 55.000
      vertex 64.482 55.801 55.000
      vertex 65.202 55.801 49.000
    endloop
  endfacet
  facet normal -0.992877 0.000000 -0.119145
    outer loop
      vertex 64.482 51.301 55.000
      vertex 65.202 55.801 49.000
      vertex 65.202 51.301 49.000
    endloop
  endfacet
  facet normal -0.999540 0.000000 -0.030331
    outer loop
      vertex 65.202 51.301 49.000
      vertex 65.202 55.801 49.000
      vertex 66.082 55.801 20.000
    endloop
  endfacet
  facet normal -0.999540 0.000000 -0.030331
    outer loop
      vertex 65.202 51.301 49.000
      vertex 66.082 55.801 20.000
      vertex 66.082 51.301 20.000
    endloop
  endfacet
  facet normal -0.857493 0.000000 -0.514496
    outer loop
      vertex 66.082 51.301 20.000
      vertex 66.082 55.801 20.000
      vertex 67.882 55.801 17.000
    endloop
  endfacet
  facet normal -0.857493 0.000000 -0.514496
    outer loop
      vertex 66.082 51.301 20.000
      vertex 67.882 55.801 17.000
      vertex 67.882 51.301 17.000
    endloop
  endfacet
  facet normal -1.000000 0.000000 0.000000
    outer loop
      vertex 67.882 51.301 17.000
      vertex 67.882 55.801 17.000
      vertex 67.882 55.801 5.000
    endloop
  endfacet
  facet normal -1.000000 0.000000 0.000000
    outer loop
      vertex 67.882 51.301 17.000
      vertex 67.882 55.801 5.000
      vertex 67.882 51.301 5.000
    endloop
  endfacet
  facet normal 0.000000 -0.000000 1.000000
    outer loop
      vertex 67.882 51.301 5.000
      vertex 67.882 55.801 5.000
      vertex 62.882 55.801 5.000
    endloop
  endfacet
  facet normal 0.000000 0.000000 1.000000
    outer loop
      vertex 67.882 51.301 5.000
      vertex 62.882 55.801 5.000
      vertex 62.882 51.301 5.000
    endloop
  endfacet
  facet normal 0.000000 -1.000000 0.000000
    outer loop
      vertex 62.882 72.499 5.000
      vertex 64.482 72.499 55.000
      vertex 62.882 72.499 55.000
    endloop
  endfacet
  facet normal 0.000000 1.000000 0.000000
    outer loop
      vertex 62.882 76.999 5.000
      vertex 62.882 76.999 55.000
      vertex 64.482 76.999 55.000
    endloop
  endfacet
  facet normal 0.000000 -1.000000 0.000000
    outer loop
      vertex 62.882 72.499 5.000
      vertex 65.202 72.499 49.000
      vertex 64.482 72.499 55.000
    endloop
  endfacet
  facet normal 0.000000 1.000000 0.000000
    outer loop
      vertex 62.882 76.999 5.000
      vertex 64.482 76.999 55.000
      vertex 65.202 76.999 49.000
    endloop
  endfacet
  facet normal 0.000000 -1.000000 0.000000
    outer loop
      vertex 62.882 72.499 5.000
      vertex 66.082 72.499 20.000
      vertex 65.202 72.499 49.000
    endloop
  endfacet
  facet normal 0.000000 1.000000 0.000000
    outer loop
      vertex 62.882 76.999 5.000
      vertex 65.202 76.999 49.000
      vertex 66.082 76.999 20.000
    endloop
  endfacet
  facet normal 0.000000 -1.000000 0.000000
    outer loop
      vertex 62.882 72.499 5.000
      vertex 67.882 72.499 17.000
      vertex 66.082 72.499 20.000
    endloop
  endfacet
  facet normal 0.000000 1.000000 0.000000
    outer loop
      vertex 62.882 76.999 5.000
      vertex 66.082 76.999 20.000
      vertex 67.882 76.999 17.000
    endloop
  endfacet
  facet normal 0.000000 -1.000000 0.000000
    outer loop
      vertex 62.882 72.499 5.000
      vertex 67.882 72.499 5.000
      vertex 67.882 72.499 17.000
    endloop
  endfacet
  facet normal 0.000000 1.000000 0.000000
    outer loop
      vertex 62.882 76.999 5.000
      vertex 67.882 76.999 17.000
      vertex 67.882 76.999 5.000
    endloop
  endfacet
  facet normal 1.000000 0.000000 0.000000
    outer loop
      vertex 62.882 72.499 5.000
      vertex 62.882 76.999 5.000
      vertex 62.882 76.999 55.000
    endloop
  endfacet
  facet normal 1.000000 0.000000 0.000000
    outer loop
      vertex 62.882 72.499 5.000
      vertex 62.882 76.999 55.000
      vertex 62.882 72.499 55.000
    endloop
  endfacet
  facet normal 0.000000 0.000000 -1.000000
    outer loop
      vertex 62.882 72.499 55.000
      vertex 62.882 76.999 55.000
      vertex 64.482 76.999 55.000
    endloop
  endfacet
  facet normal 0.000000 0.000000 -1.000000
    outer loop
      vertex 62.882 72.499 55.000
      vertex 64.482 76.999 55.000
      vertex 64.482 72.499 55.000
    endloop
  endfacet
  facet normal -0.992877 0.000000 -0.119145
    outer loop
      vertex 64.482 72.499 55.000
      vertex 64.482 76.999 55.000
      vertex 65.202 76.999 49.000
    endloop
  endfacet
  facet normal -0.992877 0.000000 -0.119145
    outer loop
      vertex 64.482 72.499 55.000
      vertex 65.202 76.999 49.000
      vertex 65.202 72.499 49.000
    endloop
  endfacet
  facet normal -0.999540 0.000000 -0.030331
    outer loop
      vertex 65.202 72.499 49.000
      vertex 65.202 76.999 49.000
      vertex 66.082 76.999 20.000
    endloop
  endfacet
  facet normal -0.999540 0.000000 -0.030331
    outer loop
      vertex 65.202 72.499 49.000
      vertex 66.082 76.999 20.000
      vertex 66.082 72.499 20.000
    endloop
  endfacet
  facet normal -0.857493 0.000000 -0.514496
    outer loop
      vertex 66.082 72.499 20.000
      vertex 66.082 76.999 20.000
      vertex 67.882 76.999 17.000
    endloop
  endfacet
  facet normal -0.857493 0.000000 -0.514496
    outer loop
      vertex 66.082 72.499 20.000
      vertex 67.882 76.999 17.000
      vertex 67.882 72.499 17.000
    endloop
  endfacet
  facet normal -1.000000 0.000000 0.000000
    outer loop
      vertex 67.882 72.499 17.000
      vertex 67.882 76.999 17.000
      vertex 67.882 76.999 5.000
    endloop
  endfacet
  facet normal -1.000000 0.000000 0.000000
    outer loop
      vertex 67.882 72.499 17.000
      vertex 67.882 76.999 5.000
      vertex 67.882 72.499 5.000
    endloop
  endfacet
  facet normal 0.000000 -0.000000 1.000000
    outer loop
      vertex 67.882 72.499 5.000
      vertex 67.882 76.999 5.000
      vertex 62.882 76.999 5.000
    endloop
  endfacet
  facet normal 0.000000 0.000000 1.000000
    outer loop
      vertex 67.882 72.499 5.000
      vertex 62.882 76.999 5.000
      vertex 62.882 72.499 5.000
    endloop
  endfacet
  facet normal 1.000000 0.000000 0.000000
    outer loop
      vertex 6.282 15.250 5.000
      vertex 6.282 19.250 5.000
      vertex 6.282 19.250 11.800
    endloop
  endfacet
  facet normal -1.000000 0.000000 0.000000
    outer loop
      vertex 67.882 15.250 5.000
      vertex 67.882 19.250 11.800
      vertex 67.882 19.250 5.000
    endloop
  endfacet
  facet normal 1.000000 0.000000 0.000000
    outer loop
      vertex 6.282 15.250 5.000
      vertex 6.282 19.250 11.800
      vertex 6.282 19.250 15.000
    endloop
  endfacet
  facet normal -1.000000 0.000000 0.000000
    outer loop
      vertex 67.882 15.250 5.000
      vertex 67.882 19.250 15.000
      vertex 67.882 19.250 11.800
    endloop
  endfacet
  facet normal 1.000000 0.000000 0.000000
    outer loop
      vertex 6.282 15.250 5.000
      vertex 6.282 19.250 15.000
      vertex 6.282 16.930 15.000
    endloop
  endfacet
  facet normal -1.000000 0.000000 0.000000
    outer loop
      vertex 67.882 15.250 5.000
      vertex 67.882 16.930 15.000
      vertex 67.882 19.250 15.000
    endloop
  endfacet
  facet normal 1.000000 0.000000 0.000000
    outer loop
      vertex 6.282 15.250 5.000
      vertex 6.282 16.930 15.000
      vertex 6.282 15.250 10.200
    endloop
  endfacet
  facet normal -1.000000 0.000000 0.000000
    outer loop
      vertex 67.882 15.250 5.000
      vertex 67.882 15.250 10.200
      vertex 67.882 16.930 15.000
    endloop
  endfacet
  facet normal 0.000000 0.000000 1.000000
    outer loop
      vertex 6.282 15.250 5.000
      vertex 67.882 15.250 5.000
      vertex 67.882 19.250 5.000
    endloop
  endfacet
  facet normal 0.000000 0.000000 1.000000
    outer loop
      vertex 6.282 15.250 5.000
      vertex 67.882 19.250 5.000
      vertex 6.282 19.250 5.000
    endloop
  endfacet
  facet normal 0.000000 -1.000000 0.000000
    outer loop
      vertex 6.282 19.250 5.000
      vertex 67.882 19.250 5.000
      vertex 67.882 19.250 11.800
    endloop
  endfacet
  facet normal 0.000000 -1.000000 0.000000
    outer loop
      vertex 6.282 19.250 5.000
      vertex 67.882 19.250 11.800
      vertex 6.282 19.250 11.800
    endloop
  endfacet
  facet normal 0.000000 -1.000000 0.000000
    outer loop
      vertex 6.282 19.250 11.800
      vertex 67.882 19.250 11.800
      vertex 67.882 19.250 15.000
    endloop
  endfacet
  facet normal 0.000000 -1.000000 0.000000
    outer loop
      vertex 6.282 19.250 11.800
      vertex 67.882 19.250 15.000
      vertex 6.282 19.250 15.000
    endloop
  endfacet
  facet normal 0.000000 0.000000 -1.000000
    outer loop
      vertex 6.282 19.250 15.000
      vertex 67.882 19.250 15.000
      vertex 67.882 16.930 15.000
    endloop
  endfacet
  facet normal 0.000000 0.000000 -1.000000
    outer loop
      vertex 6.282 19.250 15.000
      vertex 67.882 16.930 15.000
      vertex 6.282 16.930 15.000
    endloop
  endfacet
  facet normal 0.000000 0.943858 -0.330350
    outer loop
      vertex 6.282 16.930 15.000
      vertex 67.882 16.930 15.000
      vertex 67.882 15.250 10.200
    endloop
  endfacet
  facet normal 0.000000 0.943858 -0.330350
    outer loop
      vertex 6.282 16.930 15.000
      vertex 67.882 15.250 10.200
      vertex 6.282 15.250 10.200
    endloop
  endfacet
  facet normal -0.000000 1.000000 0.000000
    outer loop
      vertex 6.282 15.250 10.200
      vertex 67.882 15.250 10.200
      vertex 67.882 15.250 5.000
    endloop
  endfacet
  facet normal 0.000000 1.000000 0.000000
    outer loop
      vertex 6.282 15.250 10.200
      vertex 67.882 15.250 5.000
      vertex 6.282 15.250 5.000
    endloop
  endfacet
  facet normal 1.000000 0.000000 0.000000
    outer loop
      vertex 6.282 109.050 5.000
      vertex 6.282 113.050 5.000
      vertex 6.282 113.050 10.200
    endloop
  endfacet
  facet normal -1.000000 0.000000 0.000000
    outer loop
      vertex 67.882 109.050 5.000
      vertex 67.882 113.050 10.200
      vertex 67.882 113.050 5.000
    endloop
  endfacet
  facet normal 1.000000 0.000000 0.000000
    outer loop
      vertex 6.282 109.050 5.000
      vertex 6.282 113.050 10.200
      vertex 6.282 111.370 15.000
    endloop
  endfacet
  facet normal -1.000000 0.000000 0.000000
    outer loop
      vertex 67.882 109.050 5.000
      vertex 67.882 111.370 15.000
      vertex 67.882 113.050 10.200
    endloop
  endfacet
  facet normal 1.000000 0.000000 0.000000
    outer loop
      vertex 6.282 109.050 5.000
      vertex 6.282 111.370 15.000
      vertex 6.282 109.050 15.000
    endloop
  endfacet
  facet normal -1.000000 0.000000 0.000000
    outer loop
      vertex 67.882 109.050 5.000
      vertex 67.882 109.050 15.000
      vertex 67.882 111.370 15.000
    endloop
  endfacet
  facet normal 0.000000 0.000000 0.000000
    outer loop
      vertex 6.282 109.050 5.000
      vertex 6.282 109.050 15.000
      vertex 6.282 109.050 11.800
    endloop
  endfacet
  facet normal 0.000000 0.000000 0.000000
    outer loop
      vertex 67.882 109.050 5.000
      vertex 67.882 109.050 11.800
      vertex 67.882 109.050 15.000
    endloop
  endfacet
  facet normal 0.000000 0.000000 1.000000
    outer loop
      vertex 6.282 109.050 5.000
      vertex 67.882 109.050 5.000
      vertex 67.882 113.050 5.000
    endloop
  endfacet
  facet normal 0.000000 0.000000 1.000000
    outer loop
      vertex 6.282 109.050 5.000
      vertex 67.882 113.050 5.000
      vertex 6.282 113.050 5.000
    endloop
  endfacet
  facet normal 0.000000 -1.000000 0.000000
    outer loop
      vertex 6.282 113.050 5.000
      vertex 67.882 113.050 5.000
      vertex 67.882 113.050 10.200
    endloop
  endfacet
  facet normal 0.000000 -1.000000 0.000000
    outer loop
      vertex 6.282 113.050 5.000
      vertex 67.882 113.050 10.200
      vertex 6.282 113.050 10.200
    endloop
  endfacet
  facet normal 0.000000 -0.943858 -0.330350
    outer loop
      vertex 6.282 113.050 10.200
      vertex 67.882 113.050 10.200
      vertex 67.882 111.370 15.000
    endloop
  endfacet
  facet normal 0.000000 -0.943858 -0.330350
    outer loop
      vertex 6.282 113.050 10.200
      vertex 67.882 111.370 15.000
      vertex 6.282 111.370 15.000
    endloop
  endfacet
  facet normal 0.000000 0.000000 -1.000000
    outer loop
      vertex 6.282 111.370 15.000
      vertex 67.882 111.370 15.000
      vertex 67.882 109.050 15.000
    endloop
  endfacet
  facet normal 0.000000 0.000000 -1.000000
    outer loop
      vertex 6.282 111.370 15.000
      vertex 67.882 109.050 15.000
      vertex 6.282 109.050 15.000
    endloop
  endfacet
  facet normal -0.000000 1.000000 0.000000
    outer loop
      vertex 6.282 109.050 15.000
      vertex 67.882 109.050 15.000
      vertex 67.882 109.050 11.800
    endloop
  endfacet
  facet normal 0.000000 1.000000 0.000000
    outer loop
      vertex 6.282 109.050 15.000
      vertex 67.882 109.050 11.800
      vertex 6.282 109.050 11.800
    endloop
  endfacet
  facet normal -0.000000 1.000000 0.000000
    outer loop
      vertex 6.282 109.050 11.800
      vertex 67.882 109.050 11.800
      vertex 67.882 109.050 5.000
    endloop
  endfacet
  facet normal 0.000000 1.000000 0.000000
    outer loop
      vertex 6.282 109.050 11.800
      vertex 67.882 109.050 5.000
      vertex 6.282 109.050 5.000
    endloop
  endfacet
  facet normal 0.000000 0.000000 -1.000000
    outer loop
      vertex 19.282 22.750 5.000
      vertex 19.282 105.550 5.000
      vertex 30.082 105.550 5.000
    endloop
  endfacet
  facet normal 0.000000 0.000000 -1.000000
    outer loop
      vertex 19.282 22.750 5.000
      vertex 30.082 105.550 5.000
      vertex 30.082 22.750 5.000
    endloop
  endfacet
  facet normal 0.000000 0.000000 1.000000
    outer loop
      vertex 19.282 22.750 5.350
      vertex 30.082 22.750 5.350
      vertex 30.082 105.550 5.350
    endloop
  endfacet
  facet normal 0.000000 0.000000 1.000000
    outer loop
      vertex 19.282 22.750 5.350
      vertex 30.082 105.550 5.350
      vertex 19.282 105.550 5.350
    endloop
  endfacet
  facet normal 0.000000 -1.000000 0.000000
    outer loop
      vertex 19.282 22.750 5.000
      vertex 30.082 22.750 5.000
      vertex 30.082 22.750 5.350
    endloop
  endfacet
  facet normal 0.000000 -1.000000 0.000000
    outer loop
      vertex 19.282 22.750 5.000
      vertex 30.082 22.750 5.350
      vertex 19.282 22.750 5.350
    endloop
  endfacet
  facet normal 0.000000 1.000000 0.000000
    outer loop
      vertex 19.282 105.550 5.000
      vertex 19.282 105.550 5.350
      vertex 30.082 105.550 5.350
    endloop
  endfacet
  facet normal 0.000000 1.000000 0.000000
    outer loop
      vertex 19.282 105.550 5.000
      vertex 30.082 105.550 5.350
      vertex 30.082 105.550 5.000
    endloop
  endfacet
  facet normal -1.000000 0.000000 0.000000
    outer loop
      vertex 19.282 22.750 5.000
      vertex 19.282 22.750 5.350
      vertex 19.282 105.550 5.350
    endloop
  endfacet
  facet normal -1.000000 0.000000 0.000000
    outer loop
      vertex 19.282 22.750 5.000
      vertex 19.282 105.550 5.350
      vertex 19.282 105.550 5.000
    endloop
  endfacet
  facet normal 1.000000 0.000000 0.000000
    outer loop
      vertex 30.082 22.750 5.000
      vertex 30.082 105.550 5.000
      vertex 30.082 105.550 5.350
    endloop
  endfacet
  facet normal 1.000000 0.000000 0.000000
    outer loop
      vertex 30.082 22.750 5.000
      vertex 30.082 105.550 5.350
      vertex 30.082 22.750 5.350
    endloop
  endfacet
  facet normal 0.000000 0.000000 -1.000000
    outer loop
      vertex 18.282 22.750 5.000
      vertex 18.282 105.550 5.000
      vertex 19.282 105.550 5.000
    endloop
  endfacet
  facet normal 0.000000 0.000000 -1.000000
    outer loop
      vertex 18.282 22.750 5.000
      vertex 19.282 105.550 5.000
      vertex 19.282 22.750 5.000
    endloop
  endfacet
  facet normal 0.000000 0.000000 1.000000
    outer loop
      vertex 18.282 22.750 6.000
      vertex 19.282 22.750 6.000
      vertex 19.282 105.550 6.000
    endloop
  endfacet
  facet normal 0.000000 0.000000 1.000000
    outer loop
      vertex 18.282 22.750 6.000
      vertex 19.282 105.550 6.000
      vertex 18.282 105.550 6.000
    endloop
  endfacet
  facet normal 0.000000 -1.000000 0.000000
    outer loop
      vertex 18.282 22.750 5.000
      vertex 19.282 22.750 5.000
      vertex 19.282 22.750 6.000
    endloop
  endfacet
  facet normal 0.000000 -1.000000 0.000000
    outer loop
      vertex 18.282 22.750 5.000
      vertex 19.282 22.750 6.000
      vertex 18.282 22.750 6.000
    endloop
  endfacet
  facet normal 0.000000 1.000000 0.000000
    outer loop
      vertex 18.282 105.550 5.000
      vertex 18.282 105.550 6.000
      vertex 19.282 105.550 6.000
    endloop
  endfacet
  facet normal 0.000000 1.000000 0.000000
    outer loop
      vertex 18.282 105.550 5.000
      vertex 19.282 105.550 6.000
      vertex 19.282 105.550 5.000
    endloop
  endfacet
  facet normal -1.000000 0.000000 0.000000
    outer loop
      vertex 18.282 22.750 5.000
      vertex 18.282 22.750 6.000
      vertex 18.282 105.550 6.000
    endloop
  endfacet
  facet normal -1.000000 0.000000 0.000000
    outer loop
      vertex 18.282 22.750 5.000
      vertex 18.282 105.550 6.000
      vertex 18.282 105.550 5.000
    endloop
  endfacet
  facet normal 1.000000 0.000000 0.000000
    outer loop
      vertex 19.282 22.750 5.000
      vertex 19.282 105.550 5.000
      vertex 19.282 105.550 6.000
    endloop
  endfacet
  facet normal 1.000000 0.000000 0.000000
    outer loop
      vertex 19.282 22.750 5.000
      vertex 19.282 105.550 6.000
      vertex 19.282 22.750 6.000
    endloop
  endfacet
  facet normal 0.000000 0.000000 -1.000000
    outer loop
      vertex 30.082 22.750 5.000
      vertex 30.082 105.550 5.000
      vertex 31.082 105.550 5.000
    endloop
  endfacet
  facet normal 0.000000 0.000000 -1.000000
    outer loop
      vertex 30.082 22.750 5.000
      vertex 31.082 105.550 5.000
      vertex 31.082 22.750 5.000
    endloop
  endfacet
  facet normal 0.000000 0.000000 1.000000
    outer loop
      vertex 30.082 22.750 6.000
      vertex 31.082 22.750 6.000
      vertex 31.082 105.550 6.000
    endloop
  endfacet
  facet normal 0.000000 0.000000 1.000000
    outer loop
      vertex 30.082 22.750 6.000
      vertex 31.082 105.550 6.000
      vertex 30.082 105.550 6.000
    endloop
  endfacet
  facet normal 0.000000 -1.000000 0.000000
    outer loop
      vertex 30.082 22.750 5.000
      vertex 31.082 22.750 5.000
      vertex 31.082 22.750 6.000
    endloop
  endfacet
  facet normal 0.000000 -1.000000 0.000000
    outer loop
      vertex 30.082 22.750 5.000
      vertex 31.082 22.750 6.000
      vertex 30.082 22.750 6.000
    endloop
  endfacet
  facet normal 0.000000 1.000000 0.000000
    outer loop
      vertex 30.082 105.550 5.000
      vertex 30.082 105.550 6.000
      vertex 31.082 105.550 6.000
    endloop
  endfacet
  facet normal 0.000000 1.000000 0.000000
    outer loop
      vertex 30.082 105.550 5.000
      vertex 31.082 105.550 6.000
      vertex 31.082 105.550 5.000
    endloop
  endfacet
  facet normal -1.000000 0.000000 0.000000
    outer loop
      vertex 30.082 22.750 5.000
      vertex 30.082 22.750 6.000
      vertex 30.082 105.550 6.000
    endloop
  endfacet
  facet normal -1.000000 0.000000 0.000000
    outer loop
      vertex 30.082 22.750 5.000
      vertex 30.082 105.550 6.000
      vertex 30.082 105.550 5.000
    endloop
  endfacet
  facet normal 1.000000 0.000000 0.000000
    outer loop
      vertex 31.082 22.750 5.000
      vertex 31.082 105.550 5.000
      vertex 31.082 105.550 6.000
    endloop
  endfacet
  facet normal 1.000000 0.000000 0.000000
    outer loop
      vertex 31.082 22.750 5.000
      vertex 31.082 105.550 6.000
      vertex 31.082 22.750 6.000
    endloop
  endfacet
  facet normal 0.000000 0.000000 -1.000000
    outer loop
      vertex 44.082 22.750 5.000
      vertex 44.082 105.550 5.000
      vertex 54.882 105.550 5.000
    endloop
  endfacet
  facet normal 0.000000 0.000000 -1.000000
    outer loop
      vertex 44.082 22.750 5.000
      vertex 54.882 105.550 5.000
      vertex 54.882 22.750 5.000
    endloop
  endfacet
  facet normal 0.000000 0.000000 1.000000
    outer loop
      vertex 44.082 22.750 5.350
      vertex 54.882 22.750 5.350
      vertex 54.882 105.550 5.350
    endloop
  endfacet
  facet normal 0.000000 0.000000 1.000000
    outer loop
      vertex 44.082 22.750 5.350
      vertex 54.882 105.550 5.350
      vertex 44.082 105.550 5.350
    endloop
  endfacet
  facet normal 0.000000 -1.000000 0.000000
    outer loop
      vertex 44.082 22.750 5.000
      vertex 54.882 22.750 5.000
      vertex 54.882 22.750 5.350
    endloop
  endfacet
  facet normal 0.000000 -1.000000 0.000000
    outer loop
      vertex 44.082 22.750 5.000
      vertex 54.882 22.750 5.350
      vertex 44.082 22.750 5.350
    endloop
  endfacet
  facet normal 0.000000 1.000000 0.000000
    outer loop
      vertex 44.082 105.550 5.000
      vertex 44.082 105.550 5.350
      vertex 54.882 105.550 5.350
    endloop
  endfacet
  facet normal 0.000000 1.000000 0.000000
    outer loop
      vertex 44.082 105.550 5.000
      vertex 54.882 105.550 5.350
      vertex 54.882 105.550 5.000
    endloop
  endfacet
  facet normal -1.000000 0.000000 0.000000
    outer loop
      vertex 44.082 22.750 5.000
      vertex 44.082 22.750 5.350
      vertex 44.082 105.550 5.350
    endloop
  endfacet
  facet normal -1.000000 0.000000 0.000000
    outer loop
      vertex 44.082 22.750 5.000
      vertex 44.082 105.550 5.350
      vertex 44.082 105.550 5.000
    endloop
  endfacet
  facet normal 1.000000 0.000000 0.000000
    outer loop
      vertex 54.882 22.750 5.000
      vertex 54.882 105.550 5.000
      vertex 54.882 105.550 5.350
    endloop
  endfacet
  facet normal 1.000000 0.000000 0.000000
    outer loop
      vertex 54.882 22.750 5.000
      vertex 54.882 105.550 5.350
      vertex 54.882 22.750 5.350
    endloop
  endfacet
  facet normal 0.000000 0.000000 -1.000000
    outer loop
      vertex 43.082 22.750 5.000
      vertex 43.082 105.550 5.000
      vertex 44.082 105.550 5.000
    endloop
  endfacet
  facet normal 0.000000 0.000000 -1.000000
    outer loop
      vertex 43.082 22.750 5.000
      vertex 44.082 105.550 5.000
      vertex 44.082 22.750 5.000
    endloop
  endfacet
  facet normal 0.000000 0.000000 1.000000
    outer loop
      vertex 43.082 22.750 6.000
      vertex 44.082 22.750 6.000
      vertex 44.082 105.550 6.000
    endloop
  endfacet
  facet normal 0.000000 0.000000 1.000000
    outer loop
      vertex 43.082 22.750 6.000
      vertex 44.082 105.550 6.000
      vertex 43.082 105.550 6.000
    endloop
  endfacet
  facet normal 0.000000 -1.000000 0.000000
    outer loop
      vertex 43.082 22.750 5.000
      vertex 44.082 22.750 5.000
      vertex 44.082 22.750 6.000
    endloop
  endfacet
  facet normal 0.000000 -1.000000 0.000000
    outer loop
      vertex 43.082 22.750 5.000
      vertex 44.082 22.750 6.000
      vertex 43.082 22.750 6.000
    endloop
  endfacet
  facet normal 0.000000 1.000000 0.000000
    outer loop
      vertex 43.082 105.550 5.000
      vertex 43.082 105.550 6.000
      vertex 44.082 105.550 6.000
    endloop
  endfacet
  facet normal 0.000000 1.000000 0.000000
    outer loop
      vertex 43.082 105.550 5.000
      vertex 44.082 105.550 6.000
      vertex 44.082 105.550 5.000
    endloop
  endfacet
  facet normal -1.000000 0.000000 0.000000
    outer loop
      vertex 43.082 22.750 5.000
      vertex 43.082 22.750 6.000
      vertex 43.082 105.550 6.000
    endloop
  endfacet
  facet normal -1.000000 0.000000 0.000000
    outer loop
      vertex 43.082 22.750 5.000
      vertex 43.082 105.550 6.000
      vertex 43.082 105.550 5.000
    endloop
  endfacet
  facet normal 1.000000 0.000000 0.000000
    outer loop
      vertex 44.082 22.750 5.000
      vertex 44.082 105.550 5.000
      vertex 44.082 105.550 6.000
    endloop
  endfacet
  facet normal 1.000000 0.000000 0.000000
    outer loop
      vertex 44.082 22.750 5.000
      vertex 44.082 105.550 6.000
      vertex 44.082 22.750 6.000
    endloop
  endfacet
  facet normal 0.000000 0.000000 -1.000000
    outer loop
      vertex 54.882 22.750 5.000
      vertex 54.882 105.550 5.000
      vertex 55.882 105.550 5.000
    endloop
  endfacet
  facet normal 0.000000 0.000000 -1.000000
    outer loop
      vertex 54.882 22.750 5.000
      vertex 55.882 105.550 5.000
      vertex 55.882 22.750 5.000
    endloop
  endfacet
  facet normal 0.000000 0.000000 1.000000
    outer loop
      vertex 54.882 22.750 6.000
      vertex 55.882 22.750 6.000
      vertex 55.882 105.550 6.000
    endloop
  endfacet
  facet normal 0.000000 0.000000 1.000000
    outer loop
      vertex 54.882 22.750 6.000
      vertex 55.882 105.550 6.000
      vertex 54.882 105.550 6.000
    endloop
  endfacet
  facet normal 0.000000 -1.000000 0.000000
    outer loop
      vertex 54.882 22.750 5.000
      vertex 55.882 22.750 5.000
      vertex 55.882 22.750 6.000
    endloop
  endfacet
  facet normal 0.000000 -1.000000 0.000000
    outer loop
      vertex 54.882 22.750 5.000
      vertex 55.882 22.750 6.000
      vertex 54.882 22.750 6.000
    endloop
  endfacet
  facet normal 0.000000 1.000000 0.000000
    outer loop
      vertex 54.882 105.550 5.000
      vertex 54.882 105.550 6.000
      vertex 55.882 105.550 6.000
    endloop
  endfacet
  facet normal 0.000000 1.000000 0.000000
    outer loop
      vertex 54.882 105.550 5.000
      vertex 55.882 105.550 6.000
      vertex 55.882 105.550 5.000
    endloop
  endfacet
  facet normal -1.000000 0.000000 0.000000
    outer loop
      vertex 54.882 22.750 5.000
      vertex 54.882 22.750 6.000
      vertex 54.882 105.550 6.000
    endloop
  endfacet
  facet normal -1.000000 0.000000 0.000000
    outer loop
      vertex 54.882 22.750 5.000
      vertex 54.882 105.550 6.000
      vertex 54.882 105.550 5.000
    endloop
  endfacet
  facet normal 1.000000 0.000000 0.000000
    outer loop
      vertex 55.882 22.750 5.000
      vertex 55.882 105.550 5.000
      vertex 55.882 105.550 6.000
    endloop
  endfacet
  facet normal 1.000000 0.000000 0.000000
    outer loop
      vertex 55.882 22.750 5.000
      vertex 55.882 105.550 6.000
      vertex 55.882 22.750 6.000
    endloop
  endfacet
endsolid cornix_lp_short_edge_snug_storage_stand
